<svg width="175" height="159" viewBox="0 0 175 159" fill="none" xmlns="http://www.w3.org/2000/svg">
<path d="M21.1802 43.0643C28.6145 27.8479 44.4783 15.1001 61.1795 11.5841H61.9098C81.2049 9.61516 99.7859 8.57469 118.663 14.0587C127.763 16.702 136.935 20.2388 143.815 26.9996C151.124 34.1816 155.814 43.9092 159.393 53.3683C166.043 70.9433 166.961 91.4175 157.527 108.256C146.96 127.116 124.725 139.175 104.587 145.01C81.5648 151.68 55.9885 150.657 35.6222 136.775C20.4935 126.462 12.1895 108.609 10.795 90.7714C10.3037 84.4867 9.41856 77.3333 10.5516 71.0557C12.2936 61.404 16.915 51.7942 21.1802 43.0643Z" stroke="black" stroke-width="20" stroke-linecap="round" stroke-linejoin="round"/>
</svg>
